<?xml version="1.0" encoding="UTF-8"?><svg id="Layer_2" xmlns="http://www.w3.org/2000/svg" viewBox="0 0 127.1142 27.0702"><g id="Components"><g id="_88e64855-9405-4c4f-9c67-5e2575cd4249_5"><path d="M24.8523,11.2702c0-2.3846-1.4699-3.9983-3.7834-3.9983h-5.9354v12.515h2.7262v-4.5902h1.9546l2.187,4.5902h3.03l-2.4558-4.9134c1.5233-.5733,2.2768-1.9183,2.2768-3.6033ZM22.0374,11.6644c0,.8069-.5022,1.2371-1.3092,1.2371h-2.8685v-3.2636h2.8685c.8069,0,1.3092.4302,1.3092,1.2371v.7893Z" style="fill:#fff; stroke-width:0px;"/><polygon points="65.6448 15.699 65.5903 15.699 64.389 13.1889 60.965 7.2719 57.9876 7.2719 57.9876 19.787 60.5522 19.787 60.5522 11.3598 60.6058 11.3598 61.8069 13.8702 65.2321 19.787 68.2085 19.787 68.2085 7.2719 65.6448 7.2719 65.6448 15.699" style="fill:#fff; stroke-width:0px;"/><polygon points="44.0207 7.2734 41.2944 7.2719 41.2944 7.2734 41.2944 9.4402 43.8808 18.019 43.8808 19.7869 46.607 19.7869 46.607 17.6177 44.0207 9.0391 44.0207 7.2734" style="fill:#fff; stroke-width:0px;"/><polygon points="51.7581 7.2734 49.0319 7.2719 49.0319 7.2734 49.0319 9.4402 51.6182 18.019 51.6182 19.7869 54.3445 19.7869 54.3445 17.6177 51.7581 9.0391 51.7581 7.2734" style="fill:#fff; stroke-width:0px;"/><polygon points="35.7562 7.2719 31.2109 7.2719 30.6792 9.0375 28.0928 17.6161 28.0928 19.7854 30.8191 19.7854 30.8191 18.0175 33.3136 9.7434 33.6535 9.7434 36.148 18.0175 36.148 19.7854 38.8742 19.7854 38.8742 17.6161 36.2879 9.0375 35.7562 7.2719" style="fill:#fff; stroke-width:0px;"/><path d="M77.4999,12.2563l-1.2554-.1973c-.5379-.0835-.9142-.2062-1.1293-.3676-.2151-.1612-.3228-.4451-.3228-.8517,0-.753.5976-1.1468,1.7928-1.1468h3.8373v-2.4211h-3.8373c-1.4103.024-2.516.3707-3.3167,1.04-.8011.6696-1.2015,1.5778-1.2015,2.6893,0,1.0521.3109,1.8889.9325,2.4744.6212.5858,1.5835.9563,2.8865,1.1115l1.2371.1614c.538.0717.9147.2242,1.1298.4574.2151.2331.3229.5288.3229.8875,0,.4663-.1679.8368-.5023,1.1115-.3349.2752-.8247.4126-1.47.4126-1.2314,0-2.2774-.4843-3.1382-1.4524l-1.775,1.8109c1.2072,1.3509,2.7792,2.0262,4.7159,2.0262,1.0158,0,1.8915-.1703,2.6267-.511.7352-.3407,1.2939-.8158,1.6764-1.4254s.5735-1.3148.5735-2.1157c0-1.0639-.3108-1.8946-.932-2.4925-.6217-.5976-1.572-.9979-2.851-1.2012Z" style="fill:#fff; stroke-width:0px;"/><path d="M9.4783,13.2551v-.1081c.8557-.3128,1.5167-1.1891,1.5167-2.6644,0-.9682-.2897-1.745-.8695-2.3308-.5798-.5856-1.3897-.8786-2.4295-.8786l-7.6961-.0014v2.168h1.6174v10.3489h6.6345c.4663,0,.8964-.0924,1.291-.2779.3946-.1852.7352-.4393,1.022-.7621.2868-.3226.511-.7021.6723-1.1385.1617-.4362.242-.8994.242-1.3897,0-1.6504-.9882-2.6098-2.0009-2.9654ZM4.3433,9.5682h2.7076c.3589,0,.6395.1018.843.3049.203.2035.3046.484.3046.8428v.538c0,.3585-.1016.6395-.3046.8428-.2036.2033-.4841.3049-.843.3049h-2.7076v-2.8332ZM8.6469,16.3639c0,.3587-.1049.6366-.3137.8339-.2093.1973-.4932.2957-.8516.2957h-3.1383v-2.8688h3.1383c.3585,0,.6423.0986.8516.2959.2088.1973.3137.4751.3137.8337v.6096Z" style="fill:#fff; stroke-width:0px;"/><path d="M100.0373,9.7359c-2.1008,0-3.804,1.7032-3.804,3.8042s1.7032,3.8041,3.804,3.8041,3.8042-1.7032,3.8042-3.8041-1.7032-3.8042-3.8042-3.8042Z" style="fill:#fff; stroke-width:0px;"/><path d="M121.7001,5.4141V0h-35.7382v5.4141l5.4141,16.2421v5.4141h35.7382v-5.4141l-5.4141-16.2421ZM100.0373,20.0018c-3.574,0-6.4715-2.8974-6.4715-6.4716s2.8975-6.4716,6.4715-6.4716,6.4716,2.8975,6.4716,6.4716-2.8975,6.4716-6.4716,6.4716ZM117.5013,18.0654c-.3825.6097-.9412,1.0848-1.6764,1.4255-.7354.3406-1.611.511-2.6267.511-1.9368,0-3.5087-.6753-4.7159-2.0261l1.775-1.8109c.8608.968,1.9069,1.4525,3.1382,1.4525.6452,0,1.1351-.1373,1.47-.4127.3344-.2747.5023-.6452.5023-1.1115,0-.3587-.1077-.6545-.3228-.8876-.2151-.233-.5919-.3856-1.1299-.4573l-1.2371-.1614c-1.3029-.1551-2.2653-.5256-2.8865-1.1115-.6216-.5855-.9324-1.4224-.9324-2.4744,0-1.1114.4004-2.0197,1.2015-2.6893.8007-.6693,1.9064-1.016,3.3167-1.04h3.8373v2.4211h-3.8373c-1.1952,0-1.7928.3938-1.7928,1.1468,0,.4066.1078.6904.3228.8517.2151.1614.5914.2841,1.1293.3675l1.2554.1973c1.2789.2032,2.2292.6036,2.851,1.2012.6211.5979.9321,1.4286.9321,2.4924,0,.801-.191,1.5062-.5736,2.1157Z" style="fill:#fff; stroke-width:0px;"/></g></g></svg>
